<svg width="1600" height="900" viewBox="0 0 1600 900" fill="none" xmlns="http://www.w3.org/2000/svg">
  <rect width="1600" height="900" fill="#0D0D0D"/>
  <rect x="0" y="0" width="1600" height="900" fill="url(#paint0_linear)"/>
  <rect x="120" y="120" width="1360" height="660" rx="28" fill="#161616" stroke="rgba(255,255,255,0.08)"/>
  <rect x="170" y="180" width="420" height="480" rx="24" fill="#202020"/>
  <rect x="650" y="182" width="440" height="48" rx="10" fill="#2A2A2A"/>
  <rect x="650" y="258" width="580" height="28" rx="8" fill="#2A2A2A"/>
  <rect x="650" y="305" width="520" height="28" rx="8" fill="#2A2A2A"/>
  <rect x="650" y="352" width="610" height="28" rx="8" fill="#2A2A2A"/>
  <rect x="650" y="430" width="220" height="68" rx="14" fill="#E50914"/>
  <rect x="892" y="430" width="220" height="68" rx="14" fill="#2A2A2A"/>
  <circle cx="380" cy="332" r="96" fill="#E50914"/>
  <path d="M331 333.5L369 371L436 304" stroke="white" stroke-width="26" stroke-linecap="round" stroke-linejoin="round"/>
  <text x="650" y="150" fill="white" font-family="Arial, Helvetica, sans-serif" font-size="64" font-weight="700">SafeBite</text>
  <text x="650" y="560" fill="#FFFFFF" font-family="Arial, Helvetica, sans-serif" font-size="34" font-weight="700">AI-powered food safety assistant</text>
  <text x="650" y="612" fill="#BEBEBE" font-family="Arial, Helvetica, sans-serif" font-size="26">Artifact preview placeholder — replace with your real screenshot later</text>
  <defs>
    <linearGradient id="paint0_linear" x1="0" y1="0" x2="1600" y2="900" gradientUnits="userSpaceOnUse">
      <stop stop-color="#E50914" stop-opacity="0.22"/>
      <stop offset="1" stop-color="#000000" stop-opacity="0.1"/>
    </linearGradient>
  </defs>
</svg>
